<svg xmlns="http://www.w3.org/2000/svg" xmlns:xlink="http://www.w3.org/1999/xlink" width="768" zoomAndPan="magnify" viewBox="0 0 576 167.249994" height="223" preserveAspectRatio="xMidYMid meet" version="1.0"><defs><clipPath id="c329f0a138"><path d="M 137 111.820312 L 191 111.820312 L 191 164.851562 L 137 164.851562 Z M 137 111.820312 " clip-rule="nonzero"/></clipPath><clipPath id="17a497c743"><path d="M 526 112 L 573.9375 112 L 573.9375 164 L 526 164 Z M 526 112 " clip-rule="nonzero"/></clipPath><clipPath id="5c8c2b0920"><path d="M 1.8125 132 L 12 132 L 12 144 L 1.8125 144 Z M 1.8125 132 " clip-rule="nonzero"/></clipPath></defs><path fill="#ffffff" d="M 97.835938 145.558594 L 89.84375 145.558594 L 89.84375 163.921875 L 78.929688 163.921875 L 78.929688 112.660156 L 102.90625 112.660156 C 113.589844 112.660156 120.125 119.652344 120.125 129.183594 C 120.125 138.714844 114.4375 143.097656 108.902344 144.402344 L 120.433594 163.921875 L 107.90625 163.921875 Z M 101.300781 122.035156 L 89.847656 122.035156 L 89.847656 136.175781 L 101.300781 136.175781 C 105.683594 136.175781 108.984375 133.40625 108.984375 129.105469 C 108.984375 124.804688 105.683594 122.035156 101.300781 122.035156 Z M 101.300781 122.035156 " fill-opacity="1" fill-rule="nonzero"/><g clip-path="url(#c329f0a138)"><path fill="#ffffff" d="M 164.164062 111.820312 C 179.691406 111.820312 190.988281 122.886719 190.988281 138.332031 C 190.988281 153.78125 179.691406 164.847656 164.164062 164.847656 C 148.636719 164.847656 137.417969 153.78125 137.417969 138.332031 C 137.417969 122.886719 148.714844 111.820312 164.164062 111.820312 Z M 164.164062 121.503906 C 154.710938 121.503906 148.636719 128.726562 148.636719 138.332031 C 148.636719 147.941406 154.710938 155.164062 164.164062 155.164062 C 173.617188 155.164062 179.765625 147.863281 179.765625 138.332031 C 179.765625 128.804688 173.617188 121.503906 164.164062 121.503906 Z M 164.164062 121.503906 " fill-opacity="1" fill-rule="nonzero"/></g><path fill="#ffffff" d="M 240.246094 155.085938 L 217.34375 155.085938 L 214.117188 163.921875 L 202.125 163.921875 L 221.953125 112.660156 L 235.632812 112.660156 L 255.382812 163.921875 L 243.46875 163.921875 L 240.242188 155.085938 Z M 220.261719 145.632812 L 237.246094 145.632812 L 228.796875 122.117188 L 220.265625 145.632812 Z M 220.261719 145.632812 " fill-opacity="1" fill-rule="nonzero"/><path fill="#ffffff" d="M 271.679688 112.660156 L 291.890625 112.660156 C 307.953125 112.660156 319.097656 122.886719 319.097656 138.328125 C 319.097656 153.773438 307.957031 163.921875 291.890625 163.921875 L 271.679688 163.921875 L 271.679688 112.65625 Z M 291.890625 154.316406 C 302.035156 154.316406 307.953125 147.015625 307.953125 138.328125 C 307.953125 129.640625 302.417969 122.269531 291.890625 122.269531 L 282.589844 122.269531 L 282.589844 154.316406 Z M 291.890625 154.316406 " fill-opacity="1" fill-rule="nonzero"/><path fill="#ffffff" d="M 373.507812 142.410156 L 349.300781 142.410156 L 349.300781 163.929688 L 338.386719 163.929688 L 338.386719 112.667969 L 349.300781 112.667969 L 349.300781 132.800781 L 373.507812 132.800781 L 373.507812 112.667969 L 384.496094 112.667969 L 384.496094 163.929688 L 373.507812 163.929688 Z M 373.507812 142.410156 " fill-opacity="1" fill-rule="nonzero"/><path fill="#ffffff" d="M 406.089844 112.660156 L 442.367188 112.660156 L 442.367188 122.035156 L 417.003906 122.035156 L 417.003906 133.179688 L 441.828125 133.179688 L 441.828125 142.554688 L 417.003906 142.554688 L 417.003906 154.46875 L 442.367188 154.46875 L 442.367188 163.921875 L 406.089844 163.921875 Z M 406.089844 112.660156 " fill-opacity="1" fill-rule="nonzero"/><path fill="#ffffff" d="M 495.085938 155.085938 L 472.183594 155.085938 L 468.957031 163.921875 L 456.964844 163.921875 L 476.789062 112.660156 L 490.472656 112.660156 L 510.222656 163.921875 L 498.304688 163.921875 L 495.082031 155.085938 Z M 475.105469 145.632812 L 492.089844 145.632812 L 483.632812 122.117188 Z M 475.105469 145.632812 " fill-opacity="1" fill-rule="nonzero"/><g clip-path="url(#17a497c743)"><path fill="#ffffff" d="M 526.519531 112.660156 L 546.730469 112.660156 C 562.789062 112.660156 573.9375 122.886719 573.9375 138.328125 C 573.9375 153.773438 562.792969 163.921875 546.730469 163.921875 L 526.519531 163.921875 L 526.519531 112.65625 Z M 546.730469 154.316406 C 556.875 154.316406 562.789062 147.015625 562.789062 138.328125 C 562.789062 129.640625 557.257812 122.269531 546.730469 122.269531 L 537.429688 122.269531 L 537.429688 154.316406 Z M 546.730469 154.316406 " fill-opacity="1" fill-rule="nonzero"/></g><path fill="#ffffff" d="M 74.539062 137.910156 L 57.082031 131.277344 L 56.996094 131.347656 C 57.746094 129.734375 58.179688 127.851562 58.179688 125.730469 C 58.179688 118.894531 53.1875 112.667969 43.425781 112.667969 L 16.449219 112.667969 L 16.449219 130.789062 L 27.359375 130.789062 L 27.359375 121.964844 L 41.042969 121.964844 C 44.730469 121.964844 47.035156 124.425781 47.035156 127.574219 C 47.035156 130.726562 44.863281 133.109375 41.367188 133.25 L 16.449219 133.25 L 20.691406 137.90625 L 16.449219 142.5625 L 41.546875 142.5625 C 45.769531 142.617188 48.035156 145.355469 48.035156 148.554688 C 48.035156 152.242188 45.574219 154.625 41.425781 154.625 L 27.359375 154.625 L 27.359375 145.03125 L 16.449219 145.03125 L 16.449219 163.925781 L 44.269531 163.925781 C 54.03125 163.925781 59.175781 157.773438 59.175781 150.089844 C 59.175781 147.976562 58.699219 145.988281 57.878906 144.234375 L 74.535156 137.90625 Z M 74.539062 137.910156 " fill-opacity="1" fill-rule="nonzero"/><path fill="#2ee55c" d="M 12.816406 132.191406 L 8.597656 132.191406 L 13.796875 137.90625 L 8.597656 143.621094 L 12.816406 143.621094 L 18.015625 137.925781 Z M 12.816406 132.191406 " fill-opacity="1" fill-rule="nonzero"/><g clip-path="url(#5c8c2b0920)"><path fill="#2ee55c" d="M 6.03125 132.191406 L 1.8125 132.191406 L 7.015625 137.90625 L 1.8125 143.621094 L 6.03125 143.621094 L 11.234375 137.925781 Z M 6.03125 132.191406 " fill-opacity="1" fill-rule="nonzero"/></g><path stroke-linecap="butt" transform="matrix(0.312503, 0, 0, 0.312503, 232.508686, 0.000000000000074274)" fill="none" stroke-linejoin="miter" d="M 232.157421 175.81077 L 232.744916 175.148277 L 232.157421 174.485784 L 157.245658 89.999115 L 216.482576 89.999115 L 291.981833 175.435774 L 216.482576 260.359939 L 157.245658 260.359939 Z M 232.157421 175.81077 " stroke="#2ee55c" stroke-width="2" stroke-opacity="1" stroke-miterlimit="4"/><path stroke-linecap="butt" transform="matrix(0.312503, 0, 0, 0.312503, 232.508686, 0.000000000000074274)" fill="none" stroke-linejoin="miter" d="M 132.595901 175.81077 L 133.183395 175.148277 L 132.595901 174.485784 L 57.746637 89.999115 L 116.983554 89.999115 L 192.482812 175.435774 L 116.983554 260.359939 L 57.746637 260.359939 Z M 132.595901 175.81077 " stroke="#2ee55c" stroke-width="2" stroke-opacity="1" stroke-miterlimit="4"/></svg>